<svg xmlns="http://www.w3.org/2000/svg" xmlns:xlink="http://www.w3.org/1999/xlink" width="6912" zoomAndPan="magnify" viewBox="0 0 5184 2592.000001" height="3456" preserveAspectRatio="xMidYMid meet" version="1.0"><defs><g/><clipPath id="id1"><path d="M 1 0 L 5183 0 L 5183 2591 L 1 2591 Z M 1 0 " clip-rule="nonzero"/></clipPath></defs><g clip-path="url(#id1)"><path fill="#ffffff" d="M 1 0 L 5183 0 L 5183 2598.496094 L 1 2598.496094 Z M 1 0 " fill-opacity="1" fill-rule="nonzero"/></g><path fill="#353232" d="M 1 0 L 5183 0 L 5183 2591 L 1 2591 Z M 1 0 " fill-opacity="1" fill-rule="nonzero"/><path fill="#ffffff" d="M 1 0 L 5183 0 L 5183 2591 L 1 2591 Z M 1 0 " fill-opacity="1" fill-rule="nonzero"/><path fill="#353232" d="M 1 0 L 5183 0 L 5183 2591 L 1 2591 Z M 1 0 " fill-opacity="1" fill-rule="nonzero"/><g fill="#f5f2ec" fill-opacity="1"><g transform="translate(192.27542, 1502.070112)"><g><path d="M 134.765625 37.828125 C 78.804688 37.828125 50.828125 1.578125 50.828125 -70.921875 C 50.828125 -137.117188 83.535156 -237.207031 148.953125 -371.1875 C 184.410156 -444.476562 205.488281 -488.804688 212.1875 -504.171875 C 218.882812 -519.535156 219.082031 -526.820312 212.78125 -526.03125 C 206.476562 -524.457031 197.414062 -519.335938 185.59375 -510.671875 C 124.125 -458.660156 70.535156 -431.078125 24.828125 -427.921875 C 16.941406 -427.140625 13 -429.113281 13 -433.84375 C 14.582031 -440.9375 19.707031 -445.269531 28.375 -446.84375 C 59.101562 -450 105.003906 -476.203125 166.078125 -525.453125 C 227.160156 -574.703125 264.007812 -611.144531 276.625 -634.78125 C 279.769531 -644.238281 294.738281 -648.96875 321.53125 -648.96875 C 342.019531 -647.394531 351.875 -642.664062 351.09375 -634.78125 C 215.539062 -406.25 138.703125 -243.125 120.578125 -145.40625 C 116.640625 -123.332031 114.671875 -103.628906 114.671875 -86.296875 C 114.671875 -31.128906 134.367188 -3.546875 173.765625 -3.546875 C 238.390625 -3.546875 333.75 -64.625 459.84375 -186.78125 C 512.632812 -530.375 596.957031 -702.171875 712.8125 -702.171875 C 753.789062 -702.171875 779.398438 -688.769531 789.640625 -661.96875 C 794.367188 -650.15625 796.734375 -637.742188 796.734375 -624.734375 C 796.734375 -611.734375 793.976562 -598.140625 788.46875 -583.953125 C 775.851562 -542.179688 755.160156 -499.425781 726.390625 -455.6875 C 697.628906 -411.957031 657.4375 -359.554688 605.8125 -298.484375 C 554.195312 -237.410156 523.660156 -200.566406 514.203125 -187.953125 C 503.179688 -132.003906 496.097656 -61.472656 492.953125 23.640625 C 492.953125 28.367188 492.953125 32.703125 492.953125 36.640625 C 492.953125 111.515625 505.945312 164.710938 531.9375 196.234375 C 542.96875 208.835938 553.410156 215.140625 563.265625 215.140625 C 573.117188 215.140625 581.984375 210.414062 589.859375 200.96875 C 593.804688 194.65625 598.734375 188.539062 604.640625 182.625 C 610.546875 176.71875 615.269531 174.75 618.8125 176.71875 C 622.363281 178.695312 622.957031 183.625 620.59375 191.5 C 612.71875 204.113281 607.597656 211.601562 605.234375 213.96875 C 592.617188 229.726562 570.550781 237.609375 539.03125 237.609375 C 536.664062 237.609375 533.910156 237.609375 530.765625 237.609375 C 485.054688 236.816406 455.898438 198.203125 443.296875 121.765625 C 440.140625 97.328125 438.5625 64.421875 438.5625 23.046875 C 438.5625 -18.328125 443.6875 -74.082031 453.9375 -144.21875 C 327.84375 -22.851562 221.453125 37.828125 134.765625 37.828125 Z M 751.8125 -602.875 C 755.75 -617.050781 757.71875 -630.050781 757.71875 -641.875 C 757.71875 -653.695312 755.15625 -661.972656 750.03125 -666.703125 C 744.914062 -671.429688 739.992188 -673.796875 735.265625 -673.796875 C 724.234375 -673.796875 709.65625 -663.945312 691.53125 -644.25 C 619.8125 -564.644531 567.007812 -437.765625 533.125 -263.609375 C 577.257812 -305.378906 621.191406 -358.96875 664.921875 -424.375 C 708.660156 -489.78125 737.625 -549.28125 751.8125 -602.875 Z M 751.8125 -602.875 "/></g></g></g><g fill="#f5f2ec" fill-opacity="1"><g transform="translate(814.074126, 1502.070112)"><g/></g></g><g fill="#f5f2ec" fill-opacity="1"><g transform="translate(1072.959939, 1502.070112)"><g><path d="M 823.921875 29.546875 C 799.492188 29.546875 781.765625 18.710938 770.734375 -2.953125 C 759.703125 -24.628906 754.1875 -52.210938 754.1875 -85.703125 C 754.1875 -119.191406 761.273438 -165.097656 775.453125 -223.421875 C 747.867188 -225.785156 700.976562 -231.300781 634.78125 -239.96875 C 525.25 -104.414062 434.234375 -10.238281 361.734375 42.5625 C 299.472656 89.050781 234.847656 112.296875 167.859375 112.296875 C 125.304688 112.296875 88.859375 101.65625 58.515625 80.375 C 28.171875 59.101562 13 27.582031 13 -14.1875 C 13 -22.0625 14.96875 -29.347656 18.90625 -36.046875 C 22.851562 -42.753906 26.796875 -44.53125 30.734375 -41.375 C 34.671875 -38.21875 36.640625 -29.15625 36.640625 -14.1875 C 36.640625 12.601562 47.082031 32.695312 67.96875 46.09375 C 88.851562 59.5 114.269531 66.203125 144.21875 66.203125 C 208.84375 66.203125 272.476562 45.117188 335.125 2.953125 C 397.78125 -39.203125 483.085938 -121.753906 591.046875 -244.703125 C 475.210938 -258.890625 398.773438 -265.984375 361.734375 -265.984375 C 261.640625 -265.984375 199.773438 -233.273438 176.140625 -167.859375 C 172.984375 -159.191406 171.40625 -151.113281 171.40625 -143.625 C 171.40625 -136.132812 172.976562 -129.4375 176.125 -123.53125 C 179.28125 -117.625 179.875 -112.894531 177.90625 -109.34375 C 175.9375 -105.800781 172.585938 -104.222656 167.859375 -104.609375 C 163.128906 -105.003906 159.191406 -107.566406 156.046875 -112.296875 C 147.367188 -127.273438 143.03125 -141.859375 143.03125 -156.046875 C 143.03125 -204.898438 151.894531 -240.953125 169.625 -264.203125 C 187.363281 -287.453125 208.054688 -302.226562 231.703125 -308.53125 C 260.066406 -316.414062 293.160156 -320.359375 330.984375 -320.359375 C 368.816406 -320.359375 464.171875 -305.382812 617.046875 -275.4375 C 659.609375 -324.300781 724.234375 -402.910156 810.921875 -511.265625 C 897.609375 -619.617188 940.953125 -674.582031 940.953125 -676.15625 L 942.140625 -676.15625 C 942.921875 -676.945312 944.890625 -678.128906 948.046875 -679.703125 C 966.960938 -690.734375 987.453125 -696.25 1009.515625 -696.25 C 1017.398438 -696.25 1021.34375 -692.3125 1021.34375 -684.4375 C 1021.34375 -683.644531 1020.945312 -682.65625 1020.15625 -681.46875 C 1019.363281 -680.289062 1018.570312 -678.71875 1017.78125 -676.75 C 1017 -674.78125 1016.21875 -673.007812 1015.4375 -671.4375 C 939.78125 -546.132812 881.066406 -405.070312 839.296875 -248.25 L 835.75 -239.96875 L 865.296875 -238.796875 C 871.597656 -238.003906 882.828125 -237.609375 898.984375 -237.609375 C 915.140625 -237.609375 932.28125 -241.347656 950.40625 -248.828125 C 968.539062 -256.316406 980.164062 -264.394531 985.28125 -273.0625 C 990.40625 -281.738281 994.9375 -283.710938 998.875 -278.984375 C 1002.820312 -274.253906 1003.21875 -269.128906 1000.0625 -263.609375 C 991.394531 -247.847656 976.023438 -236.421875 953.953125 -229.328125 C 935.046875 -221.453125 916.332031 -217.515625 897.8125 -217.515625 C 879.289062 -217.515625 867.269531 -217.515625 861.75 -217.515625 L 829.84375 -218.6875 C 814.863281 -150.125 807.375 -95.550781 807.375 -54.96875 C 807.375 -14.382812 818.40625 5.90625 840.46875 5.90625 C 861.75 5.90625 894.847656 -11.035156 939.765625 -44.921875 C 984.691406 -78.804688 1026.859375 -122.546875 1066.265625 -176.140625 C 1068.628906 -179.285156 1071.78125 -180.070312 1075.71875 -178.5 C 1079.65625 -176.925781 1081.625 -174.957031 1081.625 -172.59375 C 1081.625 -170.226562 1081.03125 -167.269531 1079.84375 -163.71875 C 1078.664062 -160.175781 1072.5625 -151.3125 1061.53125 -137.125 C 1028.4375 -92.988281 987.851562 -51.222656 939.78125 -11.828125 C 905.101562 15.753906 866.484375 29.546875 823.921875 29.546875 Z M 888.9375 -565.046875 C 889.726562 -566.617188 890.710938 -568.78125 891.890625 -571.53125 C 893.078125 -574.289062 894.066406 -576.460938 894.859375 -578.046875 C 796.347656 -443.296875 717.144531 -339.273438 657.25 -265.984375 L 781.375 -245.875 C 803.4375 -331.78125 839.289062 -438.171875 888.9375 -565.046875 Z M 888.9375 -565.046875 "/></g></g></g><g fill="#f5f2ec" fill-opacity="1"><g transform="translate(2076.585666, 1502.070112)"><g><path d="M 344 -260.0625 L 349.90625 -283.703125 C 349.90625 -299.472656 343.992188 -307.359375 332.171875 -307.359375 C 299.859375 -307.359375 255.722656 -282.140625 199.765625 -231.703125 C 143.816406 -181.265625 108.359375 -130.429688 93.390625 -79.203125 C 89.453125 -65.804688 87.484375 -53.785156 87.484375 -43.140625 C 87.484375 -32.503906 89.84375 -23.640625 94.5625 -16.546875 C 104.019531 -2.359375 118.597656 4.734375 138.296875 4.734375 C 158.003906 4.734375 179.285156 1.972656 202.140625 -3.546875 C 252.578125 -17.734375 294.539062 -38.023438 328.03125 -64.421875 C 361.53125 -90.828125 396.800781 -127.671875 433.84375 -174.953125 C 436.988281 -178.890625 440.726562 -180.070312 445.0625 -178.5 C 449.40625 -176.925781 451.578125 -174.757812 451.578125 -172 C 451.578125 -169.238281 450.394531 -165.101562 448.03125 -159.59375 C 410.195312 -108.363281 370.59375 -66.789062 329.21875 -34.875 C 287.84375 -2.957031 239.96875 17.726562 185.59375 27.1875 C 169.832031 29.550781 155.253906 30.734375 141.859375 30.734375 C 103.242188 30.734375 73.882812 21.273438 53.78125 2.359375 C 33.6875 -16.546875 23.640625 -37.425781 23.640625 -60.28125 C 23.640625 -83.132812 29.15625 -107.960938 40.1875 -134.765625 C 59.894531 -179.679688 102.054688 -225.78125 166.671875 -273.0625 C 231.296875 -320.351562 282.523438 -344 320.359375 -344 C 329.816406 -344 338.878906 -342.816406 347.546875 -340.453125 C 369.609375 -332.566406 380.640625 -319.957031 380.640625 -302.625 C 380.640625 -290.800781 376.304688 -277.398438 367.640625 -262.421875 C 358.972656 -247.453125 352.472656 -242.132812 348.140625 -246.46875 C 343.804688 -250.800781 342.425781 -255.332031 344 -260.0625 Z M 344 -260.0625 "/></g></g></g><g fill="#f5f2ec" fill-opacity="1"><g transform="translate(2448.955784, 1502.070112)"><g><path d="M 106.390625 13 C 93.785156 13 80.191406 9.253906 65.609375 1.765625 C 51.023438 -5.710938 38.609375 -16.347656 28.359375 -30.140625 C 18.117188 -43.929688 13 -58.707031 13 -74.46875 C 13 -90.226562 16.546875 -105.203125 23.640625 -119.390625 C 39.398438 -152.492188 64.816406 -184.609375 99.890625 -215.734375 C 134.960938 -246.867188 171.410156 -273.46875 209.234375 -295.53125 C 247.066406 -317.59375 277.015625 -331.382812 299.078125 -336.90625 C 321.140625 -342.425781 342.613281 -345.1875 363.5 -345.1875 C 384.382812 -345.1875 402.3125 -339.863281 417.28125 -329.21875 C 432.257812 -318.582031 439.75 -307.351562 439.75 -295.53125 C 439.75 -291.59375 439.351562 -289.226562 438.5625 -288.4375 C 437.78125 -287.644531 435.8125 -288.039062 432.65625 -289.625 C 423.195312 -304.59375 403.691406 -312.078125 374.140625 -312.078125 C 344.585938 -312.078125 311.09375 -302.421875 273.65625 -283.109375 C 236.226562 -263.804688 200.960938 -239.578125 167.859375 -210.421875 C 140.273438 -184.410156 116.039062 -155.050781 95.15625 -122.34375 C 74.269531 -89.644531 63.828125 -65.804688 63.828125 -50.828125 C 63.828125 -21.671875 72.101562 -7.09375 88.65625 -7.09375 C 105.207031 -7.09375 130.425781 -20.488281 164.3125 -47.28125 C 220.269531 -94.570312 258.492188 -129.25 278.984375 -151.3125 C 351.484375 -229.332031 390.492188 -268.34375 396.015625 -268.34375 C 405.472656 -268.34375 416.898438 -265.582031 430.296875 -260.0625 C 443.691406 -254.550781 448.023438 -247.851562 443.296875 -239.96875 C 403.109375 -183.226562 379.46875 -126.09375 372.375 -68.5625 C 371.582031 -61.46875 371.1875 -52.40625 371.1875 -41.375 C 371.1875 -30.34375 374.335938 -21.28125 380.640625 -14.1875 C 392.460938 -1.570312 408.617188 -0.78125 429.109375 -11.8125 C 449.597656 -22.851562 478.160156 -44.921875 514.796875 -78.015625 C 551.441406 -111.117188 580.800781 -143.429688 602.875 -174.953125 C 606.019531 -178.890625 609.5625 -179.875 613.5 -177.90625 C 617.445312 -175.9375 619.421875 -174.164062 619.421875 -172.59375 C 619.421875 -160.769531 600.703125 -134.957031 563.265625 -95.15625 C 525.835938 -55.363281 497.273438 -28.375 477.578125 -14.1875 C 440.535156 13.394531 406.253906 27.1875 374.734375 27.1875 C 344.785156 27.1875 324.6875 12.210938 314.4375 -17.734375 C 312.082031 -27.191406 310.90625 -37.832031 310.90625 -49.65625 C 310.90625 -85.113281 318.390625 -122.546875 333.359375 -161.953125 C 330.203125 -160.378906 315.617188 -144.617188 289.609375 -114.671875 C 263.609375 -84.722656 233.46875 -55.957031 199.1875 -28.375 C 164.90625 -0.789062 133.972656 13 106.390625 13 Z M 106.390625 13 "/></g></g></g><g fill="#f5f2ec" fill-opacity="1"><g transform="translate(2989.187889, 1502.070112)"><g><path d="M 99.890625 -215.734375 C 134.960938 -246.867188 171.410156 -273.46875 209.234375 -295.53125 C 247.066406 -317.59375 277.015625 -331.382812 299.078125 -336.90625 C 321.140625 -342.425781 342.8125 -345.1875 364.09375 -345.1875 C 385.375 -345.1875 405.472656 -338.09375 424.390625 -323.90625 C 532.335938 -574.5 635.566406 -699.796875 734.078125 -699.796875 C 767.179688 -699.796875 789.644531 -690.34375 801.46875 -671.4375 C 806.976562 -661.976562 809.734375 -653.703125 809.734375 -646.609375 C 809.734375 -626.898438 801.257812 -601.875 784.3125 -571.53125 C 767.375 -541.195312 741.171875 -507.90625 705.703125 -471.65625 C 670.242188 -435.414062 619.414062 -390.695312 553.21875 -337.5 C 487.03125 -284.300781 450.390625 -254.550781 443.296875 -248.25 C 418.078125 -189.925781 398.375 -133.578125 384.1875 -79.203125 C 370 -24.828125 362.90625 15.753906 362.90625 42.546875 C 362.90625 69.347656 367.632812 90.628906 377.09375 106.390625 C 381.820312 116.640625 388.914062 122.75 398.375 124.71875 C 407.832031 126.6875 415.910156 125.503906 422.609375 121.171875 C 429.304688 116.835938 434.425781 113.09375 437.96875 109.9375 C 441.519531 106.78125 445.859375 103.820312 450.984375 101.0625 C 456.109375 98.3125 459.847656 97.722656 462.203125 99.296875 C 464.566406 100.867188 464.175781 105.203125 461.03125 112.296875 C 454.726562 120.179688 448.816406 126.878906 443.296875 132.390625 C 430.691406 141.066406 415.914062 145.40625 398.96875 145.40625 C 382.019531 145.40625 370.789062 145.007812 365.28125 144.21875 C 327.445312 137.914062 308.53125 110.332031 308.53125 61.46875 C 308.53125 14.1875 314.835938 -29.550781 327.453125 -69.75 C 344.785156 -124.914062 360.546875 -170.625 374.734375 -206.875 C 248.640625 -60.289062 159.191406 13 106.390625 13 C 93.785156 13 80.191406 9.253906 65.609375 1.765625 C 51.023438 -5.710938 38.609375 -16.347656 28.359375 -30.140625 C 18.117188 -43.929688 13 -58.707031 13 -74.46875 C 13 -90.226562 16.546875 -105.203125 23.640625 -119.390625 C 39.398438 -152.492188 64.816406 -184.609375 99.890625 -215.734375 Z M 414.921875 -304.984375 C 405.460938 -309.710938 388.910156 -312.078125 365.265625 -312.078125 C 341.628906 -312.078125 311.09375 -302.421875 273.65625 -283.109375 C 236.226562 -263.804688 200.960938 -239.578125 167.859375 -210.421875 C 140.273438 -184.410156 116.039062 -155.050781 95.15625 -122.34375 C 74.269531 -89.644531 63.828125 -65.804688 63.828125 -50.828125 C 63.828125 -21.671875 72.101562 -7.09375 88.65625 -7.09375 C 105.207031 -7.09375 130.425781 -20.488281 164.3125 -47.28125 C 251.789062 -119 329.8125 -191.503906 398.375 -264.796875 Z M 761.265625 -602.875 C 771.515625 -621.78125 776.640625 -637.734375 776.640625 -650.734375 C 776.640625 -663.742188 770.925781 -670.25 759.5 -670.25 C 748.070312 -670.25 732.898438 -663.15625 713.984375 -648.96875 C 627.296875 -582.769531 548.890625 -472.050781 478.765625 -316.8125 C 529.972656 -349.90625 583.550781 -394.03125 639.5 -449.1875 C 695.457031 -504.351562 736.046875 -555.582031 761.265625 -602.875 Z M 761.265625 -602.875 "/></g></g></g><g fill="#f5f2ec" fill-opacity="1"><g transform="translate(3432.485291, 1502.070112)"><g><path d="M 320.359375 -344 C 362.910156 -344 384.1875 -323.507812 384.1875 -282.53125 C 384.1875 -261.25 378.273438 -243.910156 366.453125 -230.515625 C 346.753906 -201.359375 314.835938 -175.941406 270.703125 -154.265625 C 226.566406 -132.597656 189.132812 -120.582031 158.40625 -118.21875 C 147.375 -117.425781 141.460938 -120.578125 140.671875 -127.671875 C 139.878906 -130.816406 140.863281 -132.785156 143.625 -133.578125 C 146.382812 -134.367188 148.550781 -134.765625 150.125 -134.765625 C 168.25 -136.335938 191.5 -145.003906 219.875 -160.765625 C 272.675781 -189.140625 311.289062 -218.300781 335.71875 -248.25 C 345.96875 -262.4375 351.09375 -276.03125 351.09375 -289.03125 C 351.09375 -302.03125 344.785156 -308.53125 332.171875 -308.53125 C 321.929688 -308.53125 308.140625 -304.195312 290.796875 -295.53125 C 253.765625 -278.195312 214.753906 -248.050781 173.765625 -205.09375 C 132.785156 -162.144531 105.992188 -120.179688 93.390625 -79.203125 C 89.453125 -66.585938 87.484375 -54.171875 87.484375 -41.953125 C 87.484375 -29.742188 92.601562 -18.125 102.84375 -7.09375 C 113.09375 3.9375 128.851562 9.453125 150.125 9.453125 C 173.769531 9.453125 200.960938 3.148438 231.703125 -9.453125 C 320.753906 -45.703125 389.316406 -100.472656 437.390625 -173.765625 C 442.117188 -180.078125 446.453125 -181.257812 450.390625 -177.3125 C 453.546875 -175.738281 455.125 -173.769531 455.125 -171.40625 C 455.125 -169.039062 453.941406 -166.285156 451.578125 -163.140625 C 427.929688 -123.734375 397.984375 -88.660156 361.734375 -57.921875 C 291.585938 1.972656 223.414062 31.921875 157.21875 31.921875 C 100.476562 31.921875 60.679688 14.976562 37.828125 -18.90625 C 29.160156 -32.3125 24.828125 -48.46875 24.828125 -67.375 C 24.828125 -86.289062 29.945312 -108.753906 40.1875 -134.765625 C 59.894531 -179.679688 102.054688 -225.78125 166.671875 -273.0625 C 231.296875 -320.351562 282.523438 -344 320.359375 -344 Z M 320.359375 -344 "/></g></g></g><g fill="#f5f2ec" fill-opacity="1"><g transform="translate(3809.583932, 1502.070112)"><g><path d="M 202.140625 -307.359375 C 202.140625 -301.835938 197.804688 -289.816406 189.140625 -271.296875 C 180.472656 -252.773438 155.648438 -189.140625 114.671875 -80.390625 C 143.035156 -115.054688 178.890625 -155.25 222.234375 -200.96875 C 309.710938 -292.382812 370.003906 -338.09375 403.109375 -338.09375 C 410.203125 -338.09375 417.097656 -336.117188 423.796875 -332.171875 C 430.492188 -328.234375 433.84375 -319.367188 433.84375 -305.578125 C 433.84375 -291.785156 429.503906 -276.414062 420.828125 -259.46875 C 412.160156 -242.53125 402.3125 -221.84375 391.28125 -197.40625 C 380.25 -172.976562 372.765625 -157.613281 368.828125 -151.3125 C 435.023438 -211.207031 485.0625 -247.65625 518.9375 -260.65625 C 552.820312 -273.65625 575.28125 -280.15625 586.3125 -280.15625 C 597.351562 -280.15625 602.875 -276.21875 602.875 -268.34375 C 602.875 -263.613281 596.960938 -252.1875 585.140625 -234.0625 C 573.316406 -215.9375 560.3125 -189.140625 546.125 -153.671875 C 531.9375 -118.210938 524.054688 -93.390625 522.484375 -79.203125 C 520.910156 -65.015625 520.125 -52.40625 520.125 -41.375 C 520.125 -30.34375 523.273438 -21.28125 529.578125 -14.1875 C 541.398438 -1.570312 557.554688 -0.78125 578.046875 -11.8125 C 598.535156 -22.851562 627.101562 -44.921875 663.75 -78.015625 C 700.394531 -111.117188 729.75 -143.429688 751.8125 -174.953125 C 754.96875 -178.890625 758.710938 -179.875 763.046875 -177.90625 C 767.378906 -175.9375 769.546875 -173.96875 769.546875 -172 C 769.546875 -170.03125 768.757812 -167.863281 767.1875 -165.5 C 755.363281 -144.21875 734.082031 -117.03125 703.34375 -83.9375 C 652.90625 -29.550781 610.742188 3.941406 576.859375 16.546875 C 539.816406 29.160156 513.023438 30.738281 496.484375 21.28125 C 479.941406 11.820312 469.695312 1.179688 465.75 -10.640625 C 461.8125 -22.460938 459.84375 -34.285156 459.84375 -46.109375 C 459.84375 -83.140625 467.128906 -120.175781 481.703125 -157.21875 C 496.285156 -194.257812 507.910156 -219.476562 516.578125 -232.875 C 486.640625 -220.269531 461.03125 -204.507812 439.75 -185.59375 C 407.4375 -157.21875 381.429688 -132.394531 361.734375 -111.125 L 338.09375 -85.109375 C 331 -67.773438 318.582031 -57.925781 300.84375 -55.5625 C 283.113281 -53.195312 274.644531 -59.109375 275.4375 -73.296875 C 277.007812 -88.265625 291.585938 -121.753906 319.171875 -173.765625 C 346.753906 -225.785156 360.546875 -254.75 360.546875 -260.65625 C 360.546875 -266.570312 357.394531 -269.53125 351.09375 -269.53125 C 336.90625 -269.53125 311.289062 -253.375 274.25 -221.0625 C 249.820312 -198.207031 213.765625 -155.054688 166.078125 -91.609375 C 118.398438 -28.171875 91.410156 5.515625 85.109375 9.453125 C 56.742188 23.640625 39.015625 30.734375 31.921875 30.734375 C 24.828125 30.734375 21.28125 29.550781 21.28125 27.1875 C 21.28125 24.820312 22.460938 21.273438 24.828125 16.546875 C 27.191406 11.816406 51.226562 -56.742188 96.9375 -189.140625 C 79.59375 -162.347656 63.832031 -141.859375 49.65625 -127.671875 C 43.34375 -120.578125 40.1875 -121.953125 40.1875 -131.796875 C 40.1875 -141.648438 42.945312 -150.125 48.46875 -157.21875 C 83.925781 -203.71875 109.929688 -243.125 126.484375 -275.4375 C 131.210938 -303.019531 140.671875 -319.175781 154.859375 -323.90625 C 163.523438 -327.050781 173.570312 -327.046875 185 -323.890625 C 196.425781 -320.742188 202.140625 -315.234375 202.140625 -307.359375 Z M 202.140625 -307.359375 "/></g></g></g><g fill="#f5f2ec" fill-opacity="1"><g transform="translate(4499.945978, 1502.070112)"><g><path d="M 16.5625 450.390625 C 10.25 450.390625 2.363281 449.207031 -7.09375 446.84375 C -47.28125 436.59375 -67.375 415.507812 -67.375 383.59375 C -67.375 351.675781 -46.6875 311.679688 -5.3125 263.609375 C 36.0625 215.535156 123.34375 147.367188 256.53125 59.109375 C 330.601562 -92.203125 377.492188 -198.203125 397.203125 -258.890625 C 387.742188 -247.847656 369.222656 -224.003906 341.640625 -187.359375 C 314.054688 -150.710938 289.625 -119.582031 268.34375 -93.96875 C 247.070312 -68.363281 221.460938 -44.132812 191.515625 -21.28125 C 161.566406 1.570312 133.984375 13 108.765625 13 C 83.546875 13 64.039062 7.285156 50.25 -4.140625 C 36.457031 -15.566406 28.769531 -27.582031 27.1875 -40.1875 C 25.613281 -52.800781 24.828125 -63.441406 24.828125 -72.109375 C 24.828125 -101.265625 32.707031 -130.425781 48.46875 -159.59375 C 72.113281 -207.664062 104.03125 -249.035156 144.21875 -283.703125 C 159.195312 -297.890625 172.398438 -304.984375 183.828125 -304.984375 C 195.253906 -304.984375 205.695312 -301.4375 215.15625 -294.34375 C 225.394531 -283.3125 228.546875 -273.859375 224.609375 -265.984375 C 194.660156 -248.640625 160.378906 -215.144531 121.765625 -165.5 C 101.273438 -138.707031 87.085938 -104.816406 79.203125 -63.828125 C 78.421875 -58.316406 78.03125 -51.421875 78.03125 -43.140625 C 78.03125 -34.867188 81.378906 -28.171875 88.078125 -23.046875 C 94.773438 -17.929688 101.671875 -15.375 108.765625 -15.375 C 133.191406 -15.375 158.800781 -28.375 185.59375 -54.375 C 212.394531 -80.382812 238.007812 -107.769531 262.4375 -136.53125 C 286.863281 -165.300781 314.640625 -199.78125 345.765625 -239.96875 C 376.898438 -280.164062 397.394531 -306.566406 407.25 -319.171875 C 417.101562 -331.785156 427.148438 -338.09375 437.390625 -338.09375 C 450.003906 -338.09375 463.007812 -334.546875 476.40625 -327.453125 C 489.800781 -320.359375 495.515625 -314.835938 493.546875 -310.890625 C 491.578125 -306.953125 471.476562 -262.226562 433.25 -176.71875 C 395.03125 -91.21875 367.253906 -29.945312 349.921875 7.09375 C 368.828125 -3.15625 400.9375 -27.390625 446.25 -65.609375 C 491.5625 -103.828125 529.976562 -142.640625 561.5 -182.046875 C 569.382812 -191.503906 574.503906 -192.289062 576.859375 -184.40625 C 577.648438 -182.832031 578.046875 -180.269531 578.046875 -176.71875 C 578.046875 -173.175781 575.679688 -168.253906 570.953125 -161.953125 C 546.523438 -129.640625 507.519531 -89.050781 453.9375 -40.1875 C 400.351562 8.664062 357.796875 41.765625 326.265625 59.109375 C 259.285156 197.023438 214.367188 283.710938 191.515625 319.171875 C 132.398438 406.648438 74.082031 450.390625 16.5625 450.390625 Z M 234.0625 104.03125 C 139.5 174.957031 71.921875 230.910156 31.328125 271.890625 C -9.253906 312.867188 -29.546875 348.132812 -29.546875 377.6875 C -29.546875 407.238281 -19.300781 422.015625 1.1875 422.015625 C 16.945312 422.015625 35.070312 413.9375 55.5625 397.78125 C 76.050781 381.625 95.753906 360.148438 114.671875 333.359375 C 133.585938 306.566406 147.96875 283.515625 157.8125 264.203125 C 167.664062 244.898438 181.257812 216.53125 198.59375 179.09375 C 215.9375 141.65625 227.757812 116.632812 234.0625 104.03125 Z M 234.0625 104.03125 "/></g></g></g><g fill="#000000" fill-opacity="1"><g transform="translate(4991.700917, 1502.070112)"><g/></g></g></svg>