<svg xmlns="http://www.w3.org/2000/svg" xmlns:xlink="http://www.w3.org/1999/xlink" width="400" zoomAndPan="magnify" viewBox="0 0 300 149.999998" height="200" preserveAspectRatio="xMidYMid meet" version="1.0"><defs><g/></defs><g fill="#f5f2ec" fill-opacity="1"><g transform="translate(9.161135, 86.680269)"><g><path d="M 7.90625 2.21875 C 4.625 2.21875 2.984375 0.09375 2.984375 -4.15625 C 2.984375 -8.039062 4.898438 -13.914062 8.734375 -21.78125 C 10.816406 -26.082031 12.054688 -28.679688 12.453125 -29.578125 C 12.847656 -30.484375 12.859375 -30.914062 12.484375 -30.875 C 12.117188 -30.78125 11.585938 -30.476562 10.890625 -29.96875 C 7.285156 -26.914062 4.140625 -25.296875 1.453125 -25.109375 C 0.992188 -25.066406 0.765625 -25.179688 0.765625 -25.453125 C 0.859375 -25.867188 1.160156 -26.125 1.671875 -26.21875 C 3.472656 -26.40625 6.164062 -27.941406 9.75 -30.828125 C 13.332031 -33.722656 15.492188 -35.863281 16.234375 -37.25 C 16.421875 -37.8125 17.300781 -38.09375 18.875 -38.09375 C 20.070312 -38 20.648438 -37.71875 20.609375 -37.25 C 12.648438 -23.84375 8.140625 -14.269531 7.078125 -8.53125 C 6.847656 -7.238281 6.734375 -6.082031 6.734375 -5.0625 C 6.734375 -1.820312 7.890625 -0.203125 10.203125 -0.203125 C 13.992188 -0.203125 19.585938 -3.789062 26.984375 -10.96875 C 30.085938 -31.125 35.035156 -41.203125 41.828125 -41.203125 C 44.234375 -41.203125 45.738281 -40.414062 46.34375 -38.84375 C 46.625 -38.15625 46.765625 -37.425781 46.765625 -36.65625 C 46.765625 -35.894531 46.597656 -35.097656 46.265625 -34.265625 C 45.523438 -31.816406 44.3125 -29.304688 42.625 -26.734375 C 40.9375 -24.171875 38.578125 -21.097656 35.546875 -17.515625 C 32.523438 -13.929688 30.734375 -11.769531 30.171875 -11.03125 C 29.523438 -7.75 29.109375 -3.609375 28.921875 1.390625 C 28.921875 1.660156 28.921875 1.914062 28.921875 2.15625 C 28.921875 6.539062 29.6875 9.660156 31.21875 11.515625 C 31.863281 12.253906 32.472656 12.625 33.046875 12.625 C 33.628906 12.625 34.15625 12.347656 34.625 11.796875 C 34.851562 11.421875 35.140625 11.0625 35.484375 10.71875 C 35.828125 10.375 36.101562 10.257812 36.3125 10.375 C 36.519531 10.488281 36.554688 10.773438 36.421875 11.234375 C 35.960938 11.972656 35.660156 12.414062 35.515625 12.5625 C 34.773438 13.476562 33.484375 13.9375 31.640625 13.9375 C 31.492188 13.9375 31.332031 13.9375 31.15625 13.9375 C 28.46875 13.894531 26.753906 11.628906 26.015625 7.140625 C 25.828125 5.710938 25.734375 3.78125 25.734375 1.34375 C 25.734375 -1.082031 26.035156 -4.351562 26.640625 -8.46875 C 19.242188 -1.34375 13 2.21875 7.90625 2.21875 Z M 44.125 -35.375 C 44.351562 -36.207031 44.46875 -36.972656 44.46875 -37.671875 C 44.46875 -38.367188 44.316406 -38.851562 44.015625 -39.125 C 43.710938 -39.40625 43.425781 -39.546875 43.15625 -39.546875 C 42.507812 -39.546875 41.648438 -38.96875 40.578125 -37.8125 C 36.367188 -33.132812 33.269531 -25.6875 31.28125 -15.46875 C 33.875 -17.914062 36.453125 -21.054688 39.015625 -24.890625 C 41.585938 -28.734375 43.289062 -32.226562 44.125 -35.375 Z M 44.125 -35.375 "/></g></g></g><g fill="#f5f2ec" fill-opacity="1"><g transform="translate(45.652371, 86.680269)"><g/></g></g><g fill="#f5f2ec" fill-opacity="1"><g transform="translate(60.845489, 86.680269)"><g><path d="M 48.359375 1.734375 C 46.921875 1.734375 45.878906 1.097656 45.234375 -0.171875 C 44.585938 -1.441406 44.265625 -3.0625 44.265625 -5.03125 C 44.265625 -7 44.679688 -9.691406 45.515625 -13.109375 C 43.890625 -13.242188 41.132812 -13.566406 37.25 -14.078125 C 30.820312 -6.128906 25.484375 -0.601562 21.234375 2.5 C 17.578125 5.226562 13.78125 6.59375 9.84375 6.59375 C 7.351562 6.59375 5.21875 5.96875 3.4375 4.71875 C 1.65625 3.46875 0.765625 1.617188 0.765625 -0.828125 C 0.765625 -1.296875 0.878906 -1.722656 1.109375 -2.109375 C 1.335938 -2.503906 1.566406 -2.609375 1.796875 -2.421875 C 2.035156 -2.242188 2.15625 -1.710938 2.15625 -0.828125 C 2.15625 0.742188 2.765625 1.921875 3.984375 2.703125 C 5.210938 3.492188 6.707031 3.890625 8.46875 3.890625 C 12.257812 3.890625 15.992188 2.648438 19.671875 0.171875 C 23.347656 -2.296875 28.351562 -7.140625 34.6875 -14.359375 C 27.882812 -15.191406 23.398438 -15.609375 21.234375 -15.609375 C 15.359375 -15.609375 11.726562 -13.6875 10.34375 -9.84375 C 10.15625 -9.34375 10.0625 -8.867188 10.0625 -8.421875 C 10.0625 -7.984375 10.148438 -7.59375 10.328125 -7.25 C 10.515625 -6.90625 10.550781 -6.628906 10.4375 -6.421875 C 10.320312 -6.210938 10.125 -6.117188 9.84375 -6.140625 C 9.570312 -6.160156 9.34375 -6.3125 9.15625 -6.59375 C 8.644531 -7.46875 8.390625 -8.320312 8.390625 -9.15625 C 8.390625 -12.019531 8.910156 -14.132812 9.953125 -15.5 C 10.992188 -16.863281 12.207031 -17.734375 13.59375 -18.109375 C 15.257812 -18.566406 17.203125 -18.796875 19.421875 -18.796875 C 21.640625 -18.796875 27.238281 -17.921875 36.21875 -16.171875 C 38.707031 -19.035156 42.492188 -23.644531 47.578125 -30 C 52.671875 -36.363281 55.21875 -39.59375 55.21875 -39.6875 L 55.296875 -39.6875 C 55.335938 -39.726562 55.453125 -39.796875 55.640625 -39.890625 C 56.742188 -40.535156 57.945312 -40.859375 59.25 -40.859375 C 59.707031 -40.859375 59.9375 -40.628906 59.9375 -40.171875 C 59.9375 -40.117188 59.910156 -40.054688 59.859375 -39.984375 C 59.816406 -39.921875 59.769531 -39.832031 59.71875 -39.71875 C 59.675781 -39.601562 59.632812 -39.5 59.59375 -39.40625 C 55.15625 -32.050781 51.707031 -23.769531 49.25 -14.5625 L 49.046875 -14.078125 L 50.78125 -14.015625 C 51.15625 -13.960938 51.816406 -13.9375 52.765625 -13.9375 C 53.710938 -13.9375 54.71875 -14.15625 55.78125 -14.59375 C 56.84375 -15.039062 57.523438 -15.515625 57.828125 -16.015625 C 58.128906 -16.523438 58.394531 -16.640625 58.625 -16.359375 C 58.851562 -16.085938 58.875 -15.789062 58.6875 -15.46875 C 58.175781 -14.539062 57.273438 -13.867188 55.984375 -13.453125 C 54.878906 -12.992188 53.78125 -12.765625 52.6875 -12.765625 C 51.601562 -12.765625 50.898438 -12.765625 50.578125 -12.765625 L 48.703125 -12.828125 C 47.828125 -8.804688 47.390625 -5.601562 47.390625 -3.21875 C 47.390625 -0.84375 48.035156 0.34375 49.328125 0.34375 C 50.578125 0.34375 52.519531 -0.648438 55.15625 -2.640625 C 57.789062 -4.628906 60.265625 -7.195312 62.578125 -10.34375 C 62.710938 -10.519531 62.894531 -10.5625 63.125 -10.46875 C 63.363281 -10.382812 63.484375 -10.269531 63.484375 -10.125 C 63.484375 -9.988281 63.445312 -9.816406 63.375 -9.609375 C 63.300781 -9.398438 62.941406 -8.878906 62.296875 -8.046875 C 60.359375 -5.453125 57.976562 -3 55.15625 -0.6875 C 53.113281 0.925781 50.847656 1.734375 48.359375 1.734375 Z M 52.171875 -33.15625 C 52.210938 -33.25 52.269531 -33.375 52.34375 -33.53125 C 52.414062 -33.695312 52.472656 -33.828125 52.515625 -33.921875 C 46.734375 -26.015625 42.085938 -19.910156 38.578125 -15.609375 L 45.859375 -14.4375 C 47.148438 -19.46875 49.253906 -25.707031 52.171875 -33.15625 Z M 52.171875 -33.15625 "/></g></g></g><g fill="#f5f2ec" fill-opacity="1"><g transform="translate(119.744839, 86.680269)"><g><path d="M 20.1875 -15.265625 L 20.53125 -16.65625 C 20.53125 -17.570312 20.1875 -18.03125 19.5 -18.03125 C 17.601562 -18.03125 15.007812 -16.550781 11.71875 -13.59375 C 8.4375 -10.632812 6.359375 -7.648438 5.484375 -4.640625 C 5.253906 -3.859375 5.140625 -3.15625 5.140625 -2.53125 C 5.140625 -1.90625 5.273438 -1.382812 5.546875 -0.96875 C 6.097656 -0.132812 6.953125 0.28125 8.109375 0.28125 C 9.265625 0.28125 10.515625 0.117188 11.859375 -0.203125 C 14.816406 -1.035156 17.28125 -2.226562 19.25 -3.78125 C 21.21875 -5.332031 23.285156 -7.492188 25.453125 -10.265625 C 25.640625 -10.492188 25.859375 -10.5625 26.109375 -10.46875 C 26.367188 -10.382812 26.5 -10.257812 26.5 -10.09375 C 26.5 -9.925781 26.429688 -9.679688 26.296875 -9.359375 C 24.078125 -6.359375 21.75 -3.921875 19.3125 -2.046875 C 16.882812 -0.171875 14.078125 1.039062 10.890625 1.59375 C 9.960938 1.726562 9.109375 1.796875 8.328125 1.796875 C 6.054688 1.796875 4.332031 1.238281 3.15625 0.125 C 1.976562 -0.976562 1.390625 -2.195312 1.390625 -3.53125 C 1.390625 -4.875 1.710938 -6.332031 2.359375 -7.90625 C 3.515625 -10.539062 5.988281 -13.242188 9.78125 -16.015625 C 13.570312 -18.796875 16.578125 -20.1875 18.796875 -20.1875 C 19.359375 -20.1875 19.890625 -20.117188 20.390625 -19.984375 C 21.691406 -19.515625 22.34375 -18.773438 22.34375 -17.765625 C 22.34375 -17.066406 22.085938 -16.273438 21.578125 -15.390625 C 21.066406 -14.515625 20.679688 -14.203125 20.421875 -14.453125 C 20.171875 -14.710938 20.09375 -14.984375 20.1875 -15.265625 Z M 20.1875 -15.265625 "/></g></g></g><g fill="#f5f2ec" fill-opacity="1"><g transform="translate(141.59796, 86.680269)"><g><path d="M 6.25 0.765625 C 5.507812 0.765625 4.707031 0.539062 3.84375 0.09375 C 2.988281 -0.34375 2.257812 -0.960938 1.65625 -1.765625 C 1.0625 -2.578125 0.765625 -3.445312 0.765625 -4.375 C 0.765625 -5.300781 0.972656 -6.175781 1.390625 -7 C 2.316406 -8.945312 3.804688 -10.832031 5.859375 -12.65625 C 7.921875 -14.488281 10.0625 -16.050781 12.28125 -17.34375 C 14.5 -18.632812 16.253906 -19.441406 17.546875 -19.765625 C 18.847656 -20.085938 20.109375 -20.25 21.328125 -20.25 C 22.554688 -20.25 23.609375 -19.9375 24.484375 -19.3125 C 25.367188 -18.695312 25.8125 -18.039062 25.8125 -17.34375 C 25.8125 -17.113281 25.785156 -16.972656 25.734375 -16.921875 C 25.691406 -16.878906 25.578125 -16.90625 25.390625 -17 C 24.835938 -17.875 23.691406 -18.3125 21.953125 -18.3125 C 20.222656 -18.3125 18.257812 -17.742188 16.0625 -16.609375 C 13.863281 -15.484375 11.789062 -14.0625 9.84375 -12.34375 C 8.226562 -10.820312 6.804688 -9.097656 5.578125 -7.171875 C 4.359375 -5.253906 3.75 -3.859375 3.75 -2.984375 C 3.75 -1.273438 4.234375 -0.421875 5.203125 -0.421875 C 6.171875 -0.421875 7.648438 -1.207031 9.640625 -2.78125 C 12.921875 -5.550781 15.164062 -7.582031 16.375 -8.875 C 20.625 -13.457031 22.910156 -15.75 23.234375 -15.75 C 23.796875 -15.75 24.46875 -15.585938 25.25 -15.265625 C 26.039062 -14.941406 26.296875 -14.546875 26.015625 -14.078125 C 23.660156 -10.753906 22.273438 -7.40625 21.859375 -4.03125 C 21.804688 -3.613281 21.78125 -3.078125 21.78125 -2.421875 C 21.78125 -1.773438 21.96875 -1.242188 22.34375 -0.828125 C 23.03125 -0.0859375 23.972656 -0.0390625 25.171875 -0.6875 C 26.378906 -1.34375 28.054688 -2.640625 30.203125 -4.578125 C 32.359375 -6.523438 34.082031 -8.421875 35.375 -10.265625 C 35.5625 -10.492188 35.769531 -10.550781 36 -10.4375 C 36.238281 -10.320312 36.359375 -10.21875 36.359375 -10.125 C 36.359375 -9.4375 35.257812 -7.921875 33.0625 -5.578125 C 30.863281 -3.242188 29.1875 -1.660156 28.03125 -0.828125 C 25.851562 0.785156 23.835938 1.59375 21.984375 1.59375 C 20.234375 1.59375 19.054688 0.710938 18.453125 -1.046875 C 18.316406 -1.597656 18.25 -2.21875 18.25 -2.90625 C 18.25 -4.988281 18.6875 -7.1875 19.5625 -9.5 C 19.375 -9.40625 18.515625 -8.476562 16.984375 -6.71875 C 15.460938 -4.96875 13.695312 -3.28125 11.6875 -1.65625 C 9.675781 -0.0390625 7.863281 0.765625 6.25 0.765625 Z M 6.25 0.765625 "/></g></g></g><g fill="#f5f2ec" fill-opacity="1"><g transform="translate(173.302327, 86.680269)"><g><path d="M 5.859375 -12.65625 C 7.921875 -14.488281 10.0625 -16.050781 12.28125 -17.34375 C 14.5 -18.632812 16.253906 -19.441406 17.546875 -19.765625 C 18.847656 -20.085938 20.117188 -20.25 21.359375 -20.25 C 22.609375 -20.25 23.789062 -19.835938 24.90625 -19.015625 C 31.238281 -33.710938 37.296875 -41.0625 43.078125 -41.0625 C 45.023438 -41.0625 46.34375 -40.507812 47.03125 -39.40625 C 47.351562 -38.851562 47.515625 -38.367188 47.515625 -37.953125 C 47.515625 -36.796875 47.015625 -35.328125 46.015625 -33.546875 C 45.023438 -31.765625 43.488281 -29.804688 41.40625 -27.671875 C 39.332031 -25.546875 36.351562 -22.921875 32.46875 -19.796875 C 28.582031 -16.679688 26.429688 -14.9375 26.015625 -14.5625 C 24.535156 -11.144531 23.378906 -7.835938 22.546875 -4.640625 C 21.710938 -1.453125 21.296875 0.925781 21.296875 2.5 C 21.296875 4.070312 21.570312 5.320312 22.125 6.25 C 22.40625 6.84375 22.820312 7.195312 23.375 7.3125 C 23.9375 7.4375 24.410156 7.367188 24.796875 7.109375 C 25.191406 6.859375 25.492188 6.640625 25.703125 6.453125 C 25.910156 6.265625 26.164062 6.085938 26.46875 5.921875 C 26.769531 5.765625 26.988281 5.734375 27.125 5.828125 C 27.257812 5.921875 27.238281 6.175781 27.0625 6.59375 C 26.6875 7.050781 26.335938 7.441406 26.015625 7.765625 C 25.273438 8.273438 24.40625 8.53125 23.40625 8.53125 C 22.414062 8.53125 21.757812 8.507812 21.4375 8.46875 C 19.21875 8.09375 18.109375 6.472656 18.109375 3.609375 C 18.109375 0.828125 18.476562 -1.738281 19.21875 -4.09375 C 20.238281 -7.332031 21.160156 -10.015625 21.984375 -12.140625 C 14.585938 -3.535156 9.34375 0.765625 6.25 0.765625 C 5.507812 0.765625 4.707031 0.539062 3.84375 0.09375 C 2.988281 -0.34375 2.257812 -0.960938 1.65625 -1.765625 C 1.0625 -2.578125 0.765625 -3.445312 0.765625 -4.375 C 0.765625 -5.300781 0.972656 -6.175781 1.390625 -7 C 2.316406 -8.945312 3.804688 -10.832031 5.859375 -12.65625 Z M 24.34375 -17.90625 C 23.789062 -18.175781 22.820312 -18.3125 21.4375 -18.3125 C 20.050781 -18.3125 18.257812 -17.742188 16.0625 -16.609375 C 13.863281 -15.484375 11.789062 -14.0625 9.84375 -12.34375 C 8.226562 -10.820312 6.804688 -9.097656 5.578125 -7.171875 C 4.359375 -5.253906 3.75 -3.859375 3.75 -2.984375 C 3.75 -1.273438 4.234375 -0.421875 5.203125 -0.421875 C 6.171875 -0.421875 7.648438 -1.207031 9.640625 -2.78125 C 14.773438 -6.988281 19.351562 -11.242188 23.375 -15.546875 Z M 44.671875 -35.375 C 45.273438 -36.488281 45.578125 -37.425781 45.578125 -38.1875 C 45.578125 -38.945312 45.238281 -39.328125 44.5625 -39.328125 C 43.894531 -39.328125 43.007812 -38.914062 41.90625 -38.09375 C 36.8125 -34.207031 32.207031 -27.707031 28.09375 -18.59375 C 31.101562 -20.53125 34.25 -23.117188 37.53125 -26.359375 C 40.8125 -29.597656 43.191406 -32.601562 44.671875 -35.375 Z M 44.671875 -35.375 "/></g></g></g><g fill="#f5f2ec" fill-opacity="1"><g transform="translate(199.317939, 86.680269)"><g><path d="M 18.796875 -20.1875 C 21.296875 -20.1875 22.546875 -18.984375 22.546875 -16.578125 C 22.546875 -15.328125 22.195312 -14.3125 21.5 -13.53125 C 20.34375 -11.820312 18.46875 -10.328125 15.875 -9.046875 C 13.289062 -7.773438 11.097656 -7.070312 9.296875 -6.9375 C 8.648438 -6.894531 8.300781 -7.082031 8.25 -7.5 C 8.207031 -7.675781 8.265625 -7.785156 8.421875 -7.828125 C 8.585938 -7.878906 8.71875 -7.90625 8.8125 -7.90625 C 9.875 -8 11.238281 -8.507812 12.90625 -9.4375 C 16 -11.101562 18.265625 -12.8125 19.703125 -14.5625 C 20.304688 -15.394531 20.609375 -16.191406 20.609375 -16.953125 C 20.609375 -17.722656 20.238281 -18.109375 19.5 -18.109375 C 18.894531 -18.109375 18.082031 -17.851562 17.0625 -17.34375 C 14.894531 -16.320312 12.609375 -14.550781 10.203125 -12.03125 C 7.796875 -9.507812 6.222656 -7.046875 5.484375 -4.640625 C 5.253906 -3.898438 5.140625 -3.171875 5.140625 -2.453125 C 5.140625 -1.742188 5.4375 -1.0625 6.03125 -0.40625 C 6.632812 0.238281 7.5625 0.5625 8.8125 0.5625 C 10.195312 0.5625 11.789062 0.1875 13.59375 -0.5625 C 18.820312 -2.6875 22.847656 -5.898438 25.671875 -10.203125 C 25.941406 -10.566406 26.195312 -10.632812 26.4375 -10.40625 C 26.613281 -10.3125 26.703125 -10.191406 26.703125 -10.046875 C 26.703125 -9.910156 26.632812 -9.753906 26.5 -9.578125 C 25.113281 -7.265625 23.359375 -5.207031 21.234375 -3.40625 C 17.109375 0.113281 13.109375 1.875 9.234375 1.875 C 5.898438 1.875 3.5625 0.878906 2.21875 -1.109375 C 1.707031 -1.898438 1.453125 -2.847656 1.453125 -3.953125 C 1.453125 -5.066406 1.753906 -6.382812 2.359375 -7.90625 C 3.515625 -10.539062 5.988281 -13.242188 9.78125 -16.015625 C 13.570312 -18.796875 16.578125 -20.1875 18.796875 -20.1875 Z M 18.796875 -20.1875 "/></g></g></g><g fill="#f5f2ec" fill-opacity="1"><g transform="translate(221.448568, 86.680269)"><g><path d="M 11.859375 -18.03125 C 11.859375 -17.707031 11.601562 -17.003906 11.09375 -15.921875 C 10.59375 -14.835938 9.140625 -11.101562 6.734375 -4.71875 C 8.398438 -6.75 10.503906 -9.109375 13.046875 -11.796875 C 18.179688 -17.160156 21.71875 -19.84375 23.65625 -19.84375 C 24.070312 -19.84375 24.472656 -19.722656 24.859375 -19.484375 C 25.253906 -19.253906 25.453125 -18.734375 25.453125 -17.921875 C 25.453125 -17.117188 25.195312 -16.21875 24.6875 -15.21875 C 24.1875 -14.226562 23.609375 -13.015625 22.953125 -11.578125 C 22.304688 -10.148438 21.867188 -9.25 21.640625 -8.875 C 25.523438 -12.394531 28.460938 -14.535156 30.453125 -15.296875 C 32.441406 -16.054688 33.757812 -16.4375 34.40625 -16.4375 C 35.050781 -16.4375 35.375 -16.207031 35.375 -15.75 C 35.375 -15.46875 35.023438 -14.796875 34.328125 -13.734375 C 33.640625 -12.671875 32.878906 -11.097656 32.046875 -9.015625 C 31.210938 -6.929688 30.75 -5.472656 30.65625 -4.640625 C 30.570312 -3.816406 30.53125 -3.078125 30.53125 -2.421875 C 30.53125 -1.773438 30.710938 -1.242188 31.078125 -0.828125 C 31.773438 -0.0859375 32.722656 -0.0390625 33.921875 -0.6875 C 35.128906 -1.34375 36.804688 -2.640625 38.953125 -4.578125 C 41.109375 -6.523438 42.832031 -8.421875 44.125 -10.265625 C 44.3125 -10.492188 44.53125 -10.550781 44.78125 -10.4375 C 45.03125 -10.320312 45.15625 -10.207031 45.15625 -10.09375 C 45.15625 -9.976562 45.113281 -9.851562 45.03125 -9.71875 C 44.332031 -8.46875 43.082031 -6.867188 41.28125 -4.921875 C 38.320312 -1.734375 35.847656 0.226562 33.859375 0.96875 C 31.679688 1.707031 30.109375 1.800781 29.140625 1.25 C 28.171875 0.695312 27.566406 0.0703125 27.328125 -0.625 C 27.097656 -1.320312 26.984375 -2.015625 26.984375 -2.703125 C 26.984375 -4.878906 27.410156 -7.050781 28.265625 -9.21875 C 29.117188 -11.394531 29.800781 -12.878906 30.3125 -13.671875 C 28.5625 -12.929688 27.0625 -12.003906 25.8125 -10.890625 C 23.914062 -9.222656 22.390625 -7.765625 21.234375 -6.515625 L 19.84375 -5 C 19.425781 -3.976562 18.695312 -3.394531 17.65625 -3.25 C 16.613281 -3.113281 16.117188 -3.460938 16.171875 -4.296875 C 16.253906 -5.179688 17.101562 -7.148438 18.71875 -10.203125 C 20.34375 -13.253906 21.15625 -14.953125 21.15625 -15.296875 C 21.15625 -15.640625 20.972656 -15.8125 20.609375 -15.8125 C 19.773438 -15.8125 18.269531 -14.863281 16.09375 -12.96875 C 14.65625 -11.632812 12.535156 -9.101562 9.734375 -5.375 C 6.941406 -1.65625 5.363281 0.320312 5 0.5625 C 3.332031 1.382812 2.289062 1.796875 1.875 1.796875 C 1.457031 1.796875 1.25 1.726562 1.25 1.59375 C 1.25 1.457031 1.316406 1.25 1.453125 0.96875 C 1.597656 0.695312 3.007812 -3.320312 5.6875 -11.09375 C 4.664062 -9.519531 3.738281 -8.320312 2.90625 -7.5 C 2.539062 -7.082031 2.359375 -7.160156 2.359375 -7.734375 C 2.359375 -8.316406 2.519531 -8.816406 2.84375 -9.234375 C 4.925781 -11.953125 6.453125 -14.265625 7.421875 -16.171875 C 7.703125 -17.785156 8.257812 -18.734375 9.09375 -19.015625 C 9.59375 -19.191406 10.175781 -19.1875 10.84375 -19 C 11.519531 -18.820312 11.859375 -18.5 11.859375 -18.03125 Z M 11.859375 -18.03125 "/></g></g></g><g fill="#f5f2ec" fill-opacity="1"><g transform="translate(261.963557, 86.680269)"><g><path d="M 0.96875 26.4375 C 0.59375 26.4375 0.128906 26.363281 -0.421875 26.21875 C -2.785156 25.625 -3.96875 24.390625 -3.96875 22.515625 C -3.96875 20.640625 -2.75 18.289062 -0.3125 15.46875 C 2.113281 12.644531 7.234375 8.644531 15.046875 3.46875 C 19.390625 -5.40625 22.140625 -11.625 23.296875 -15.1875 C 22.742188 -14.539062 21.65625 -13.140625 20.03125 -10.984375 C 18.414062 -8.835938 16.984375 -7.015625 15.734375 -5.515625 C 14.492188 -4.015625 12.992188 -2.59375 11.234375 -1.25 C 9.472656 0.09375 7.851562 0.765625 6.375 0.765625 C 4.894531 0.765625 3.75 0.429688 2.9375 -0.234375 C 2.132812 -0.910156 1.6875 -1.617188 1.59375 -2.359375 C 1.5 -3.097656 1.453125 -3.722656 1.453125 -4.234375 C 1.453125 -5.941406 1.914062 -7.648438 2.84375 -9.359375 C 4.226562 -12.179688 6.097656 -14.613281 8.453125 -16.65625 C 9.335938 -17.488281 10.113281 -17.90625 10.78125 -17.90625 C 11.445312 -17.90625 12.0625 -17.695312 12.625 -17.28125 C 13.21875 -16.625 13.398438 -16.066406 13.171875 -15.609375 C 11.410156 -14.585938 9.398438 -12.625 7.140625 -9.71875 C 5.929688 -8.144531 5.097656 -6.15625 4.640625 -3.75 C 4.597656 -3.425781 4.578125 -3.019531 4.578125 -2.53125 C 4.578125 -2.039062 4.769531 -1.644531 5.15625 -1.34375 C 5.550781 -1.050781 5.957031 -0.90625 6.375 -0.90625 C 7.8125 -0.90625 9.316406 -1.664062 10.890625 -3.1875 C 12.460938 -4.71875 13.960938 -6.328125 15.390625 -8.015625 C 16.828125 -9.703125 18.457031 -11.722656 20.28125 -14.078125 C 22.113281 -16.441406 23.316406 -17.992188 23.890625 -18.734375 C 24.472656 -19.472656 25.0625 -19.84375 25.65625 -19.84375 C 26.394531 -19.84375 27.15625 -19.632812 27.9375 -19.21875 C 28.726562 -18.800781 29.066406 -18.476562 28.953125 -18.25 C 28.835938 -18.019531 27.65625 -15.394531 25.40625 -10.375 C 23.164062 -5.351562 21.539062 -1.753906 20.53125 0.421875 C 21.632812 -0.179688 23.515625 -1.601562 26.171875 -3.84375 C 28.835938 -6.09375 31.097656 -8.375 32.953125 -10.6875 C 33.410156 -11.238281 33.707031 -11.285156 33.84375 -10.828125 C 33.894531 -10.734375 33.921875 -10.582031 33.921875 -10.375 C 33.921875 -10.164062 33.78125 -9.875 33.5 -9.5 C 32.0625 -7.601562 29.769531 -5.222656 26.625 -2.359375 C 23.488281 0.503906 20.992188 2.445312 19.140625 3.46875 C 15.210938 11.5625 12.578125 16.648438 11.234375 18.734375 C 7.765625 23.867188 4.34375 26.4375 0.96875 26.4375 Z M 13.734375 6.109375 C 8.179688 10.265625 4.210938 13.546875 1.828125 15.953125 C -0.546875 18.359375 -1.734375 20.425781 -1.734375 22.15625 C -1.734375 23.894531 -1.132812 24.765625 0.0625 24.765625 C 0.988281 24.765625 2.050781 24.289062 3.25 23.34375 C 4.457031 22.394531 5.613281 21.132812 6.71875 19.5625 C 7.832031 17.988281 8.675781 16.632812 9.25 15.5 C 9.832031 14.375 10.628906 12.710938 11.640625 10.515625 C 12.660156 8.316406 13.359375 6.847656 13.734375 6.109375 Z M 13.734375 6.109375 "/></g></g></g></svg>